<svg xmlns="http://www.w3.org/2000/svg" width="430" height="430" fill="none" viewBox="0 0 430 430"><g stroke-linecap="round" stroke-linejoin="round" stroke-miterlimit="16" stroke-width="12"><path stroke="#08a88a" d="M252.199 339c1 3.4 1.5 6.9 1.5 10.6 0 21.3-17.3 38.5-38.5 38.5s-38.5-17.3-38.5-38.5c0-3.7.5-7.2 1.5-10.6"/><path stroke="#121331" d="M231.699 80.5V53.2c0-6.2-6.9-11.2-15.5-11.2s-15.5 5-15.5 11.1v27.4m111.6 85.6c0-47.9-43.1-86.7-96.1-86.7s-95.9 39.5-95.7 88.2.4 88.6.4 89-11.3 19-25.1 41.6C82 320.7 70.7 339 70.8 339h188.4c55.2 0 100 0 99.9-.1 0 0-10.5-19.1-23.5-42.5-12.9-23.4-23.4-42.7-23.4-43 .1-.3.1-39.4.1-87.3"/></g></svg>