<svg xmlns="http://www.w3.org/2000/svg" width="430" height="430" fill="none" viewBox="0 0 430 430"><path stroke="#121331" stroke-linecap="round" stroke-linejoin="round" stroke-miterlimit="15.2" stroke-width="12" d="m219.054 48.3 38.9 119.9c.6 2 2.5 3.3 4.5 3.3h126.1c4.6 0 6.5 5.9 2.8 8.6l-50.3 36.6-51.6 37.5c-1.7 1.2-2.4 3.4-1.7 5.3l14.7 45.3 24.2 74.6c1.4 4.4-3.6 8-7.3 5.3l-47.6-34.6-54.3-39.5c-1.7-1.2-3.9-1.2-5.6 0l-48.5 35.3-53.4 38.8c-3.7 2.7-8.8-.9-7.3-5.3l22.2-68.2 16.8-51.7c.6-2-.1-4.1-1.7-5.3l-52.8-38.4-49.2-35.7c-3.7-2.7-1.8-8.6 2.8-8.6h125.8c2.1 0 3.9-1.3 4.5-3.3l39-119.9c1.4-4.4 7.6-4.4 9 0"/></svg>